<svg xmlns="http://www.w3.org/2000/svg" xmlns:xlink="http://www.w3.org/1999/xlink" xmlns:lucid="lucid" width="1765.7" height="1746.85"><g transform="translate(-74.30000000000007 356)" lucid:page-tab-id="0_0"><path d="M0-1259.2h1870.4v3841.6H0z" fill="#fff"/><path d="M166.05 32h200v136h-200z" fill="#fff"/><path d="M166.05 32h200v136h-200zM166.05 72h200M226.05 72v96" stroke="#000" stroke-width="2" fill="none"/><use xlink:href="#a" transform="matrix(1,0,0,1,176.05000000011609,32) translate(50.05 23.6)"/><use xlink:href="#b" transform="matrix(1,0,0,1,171.05000000011609,74.5) translate(13.524999999999999 17.1)"/><use xlink:href="#c" transform="matrix(1,0,0,1,231.05000000011609,74.5) translate(0 17.1)"/><use xlink:href="#b" transform="matrix(1,0,0,1,171.05000000011609,106.5) translate(13.524999999999999 17.1)"/><use xlink:href="#d" transform="matrix(1,0,0,1,231.05000000011609,106.5) translate(0 17.1)"/><use xlink:href="#e" transform="matrix(1,0,0,1,171.05000000011609,138.5) translate(13 17.1)"/><use xlink:href="#f" transform="matrix(1,0,0,1,231.05000000011609,138.5) translate(0 17.1)"/><path d="M166.05 728.75h200v136h-200z" fill="#fff"/><path d="M166.05 728.75h200v136h-200zM166.05 768.75h200M226.05 768.75v96" stroke="#000" stroke-width="2" fill="none"/><use xlink:href="#g" transform="matrix(1,0,0,1,176.05000000011609,728.75) translate(51.55 23.6)"/><use xlink:href="#e" transform="matrix(1,0,0,1,171.05000000011609,771.25) translate(13 17.1)"/><use xlink:href="#f" transform="matrix(1,0,0,1,231.05000000011609,771.25) translate(0 17.1)"/><use xlink:href="#h" transform="matrix(1,0,0,1,171.05000000011609,803.25) translate(9.5 17.1)"/><use xlink:href="#i" transform="matrix(1,0,0,1,231.05000000011609,803.25) translate(0 17.1)"/><use xlink:href="#b" transform="matrix(1,0,0,1,171.05000000011609,835.25) translate(13.524999999999999 17.1)"/><use xlink:href="#j" transform="matrix(1,0,0,1,231.05000000011609,835.25) translate(0 17.1)"/><path d="M880 810.85h200v168H880z" fill="#fff"/><path d="M880 810.85h200v168H880zM880 850.85h200M940 850.85v128" stroke="#000" stroke-width="2" fill="none"/><use xlink:href="#k" transform="matrix(1,0,0,1,890,810.85) translate(61.525 23.6)"/><use xlink:href="#e" transform="matrix(1,0,0,1,885,853.35) translate(13 17.1)"/><use xlink:href="#f" transform="matrix(1,0,0,1,945,853.35) translate(0 17.1)"/><use xlink:href="#h" transform="matrix(1,0,0,1,885,885.35) translate(9.5 17.1)"/><use xlink:href="#d" transform="matrix(1,0,0,1,945,885.35) translate(0 17.1)"/><use xlink:href="#h" transform="matrix(1,0,0,1,885,917.35) translate(9.5 17.1)"/><use xlink:href="#i" transform="matrix(1,0,0,1,945,917.35) translate(0 17.1)"/><use xlink:href="#h" transform="matrix(1,0,0,1,885,949.35) translate(9.5 17.1)"/><use xlink:href="#l" transform="matrix(1,0,0,1,945,949.35) translate(0 17.1)"/><path d="M880.5 32h200v168h-200z" fill="#fff"/><path d="M880.5 32h200v168h-200zM880.5 72h200M940.5 72v128" stroke="#000" stroke-width="2" fill="none"/><use xlink:href="#m" transform="matrix(1,0,0,1,890.499999999768,32) translate(67.075 23.6)"/><use xlink:href="#e" transform="matrix(1,0,0,1,885.499999999768,74.5) translate(13 17.1)"/><use xlink:href="#f" transform="matrix(1,0,0,1,945.499999999768,74.5) translate(0 17.1)"/><use xlink:href="#b" transform="matrix(1,0,0,1,885.499999999768,106.5) translate(13.524999999999999 17.1)"/><use xlink:href="#d" transform="matrix(1,0,0,1,945.499999999768,106.5) translate(0 17.1)"/><use xlink:href="#h" transform="matrix(1,0,0,1,885.499999999768,138.5) translate(9.5 17.1)"/><use xlink:href="#i" transform="matrix(1,0,0,1,945.499999999768,138.5) translate(0 17.1)"/><use xlink:href="#h" transform="matrix(1,0,0,1,885.499999999768,170.5) translate(9.5 17.1)"/><use xlink:href="#l" transform="matrix(1,0,0,1,945.499999999768,170.5) translate(0 17.1)"/><path d="M1161.33 32h200v200h-200z" fill="#fff"/><path d="M1161.33 32h200v200h-200zM1161.33 72h200M1221.33 72v160" stroke="#000" stroke-width="2" fill="none"/><use xlink:href="#n" transform="matrix(1,0,0,1,1171.3333333332948,32) translate(61.525 23.6)"/><use xlink:href="#e" transform="matrix(1,0,0,1,1166.3333333332948,74.5) translate(13 17.1)"/><use xlink:href="#f" transform="matrix(1,0,0,1,1226.3333333332948,74.5) translate(0 17.1)"/><use xlink:href="#b" transform="matrix(1,0,0,1,1166.3333333332948,106.5) translate(13.524999999999999 17.1)"/><use xlink:href="#o" transform="matrix(1,0,0,1,1226.3333333332948,106.5) translate(0 17.1)"/><use xlink:href="#h" transform="matrix(1,0,0,1,1166.3333333332948,138.5) translate(9.5 17.1)"/><use xlink:href="#l" transform="matrix(1,0,0,1,1226.3333333332948,138.5) translate(0 17.1)"/><use xlink:href="#b" transform="matrix(1,0,0,1,1166.3333333332948,170.5) translate(13.524999999999999 17.1)"/><use xlink:href="#p" transform="matrix(1,0,0,1,1226.3333333332948,170.5) translate(0 17.1)"/><use xlink:href="#q" transform="matrix(1,0,0,1,1166.3333333332948,202.5) translate(11 17.1)"/><use xlink:href="#r" transform="matrix(1,0,0,1,1226.3333333332948,202.5) translate(0 17.1)"/><path d="M1160.83 810.85h200v232h-200z" fill="#fff"/><path d="M1160.83 810.85h200v232h-200zM1160.83 850.85h200M1220.83 850.85v192" stroke="#000" stroke-width="2" fill="none"/><use xlink:href="#s" transform="matrix(1,0,0,1,1170.8333333335265,810.8499999999999) translate(78.075 23.6)"/><use xlink:href="#e" transform="matrix(1,0,0,1,1165.8333333335265,853.3499999999999) translate(13 17.1)"/><use xlink:href="#f" transform="matrix(1,0,0,1,1225.8333333335265,853.3499999999999) translate(0 17.1)"/><use xlink:href="#b" transform="matrix(1,0,0,1,1165.8333333335265,885.3499999999999) translate(13.524999999999999 17.1)"/><use xlink:href="#t" transform="matrix(1,0,0,1,1225.8333333335265,885.3499999999999) translate(0 17.1)"/><use xlink:href="#h" transform="matrix(1,0,0,1,1165.8333333335265,917.3499999999999) translate(9.5 17.1)"/><use xlink:href="#u" transform="matrix(1,0,0,1,1225.8333333335265,917.3499999999999) translate(0 17.1)"/><use xlink:href="#b" transform="matrix(1,0,0,1,1165.8333333335265,949.3499999999999) translate(13.524999999999999 17.1)"/><use xlink:href="#v" transform="matrix(1,0,0,1,1225.8333333335265,949.3499999999999) translate(0 17.1)"/><use xlink:href="#h" transform="matrix(1,0,0,1,1165.8333333335265,981.3499999999999) translate(9.5 17.1)"/><use xlink:href="#l" transform="matrix(1,0,0,1,1225.8333333335265,981.3499999999999) translate(0 17.1)"/><use xlink:href="#h" transform="matrix(1,0,0,1,1165.8333333335265,1013.3499999999999) translate(9.5 17.1)"/><use xlink:href="#w" transform="matrix(1,0,0,1,1225.8333333335265,1013.3499999999999) translate(0 17.1)"/><path d="M166.05 207h200v136h-200z" fill="#fff"/><path d="M166.05 207h200v136h-200zM166.05 247h200M226.05 247v96" stroke="#000" stroke-width="2" fill="none"/><use xlink:href="#x" transform="matrix(1,0,0,1,176.05000000011609,207) translate(13.649999999999991 23.6)"/><use xlink:href="#y" transform="matrix(1,0,0,1,176.05000000011609,207) translate(56.55 23.6)"/><use xlink:href="#z" transform="matrix(1,0,0,1,176.05000000011609,207) translate(121.45 23.6)"/><use xlink:href="#e" transform="matrix(1,0,0,1,171.05000000011609,249.5) translate(13 17.1)"/><use xlink:href="#f" transform="matrix(1,0,0,1,231.05000000011609,249.5) translate(0 17.1)"/><use xlink:href="#h" transform="matrix(1,0,0,1,171.05000000011609,281.5) translate(9.5 17.1)"/><use xlink:href="#A" transform="matrix(1,0,0,1,231.05000000011609,281.5) translate(0 17.1)"/><use xlink:href="#h" transform="matrix(1,0,0,1,171.05000000011609,313.5) translate(9.5 17.1)"/><use xlink:href="#B" transform="matrix(1,0,0,1,231.05000000011609,313.5) translate(0 17.1)"/><path d="M166.05 388.5h200v264h-200z" fill="#fff"/><path d="M166.05 388.5h200v264h-200zM166.05 428.5h200M226.05 428.5v224" stroke="#000" stroke-width="2" fill="none"/><use xlink:href="#C" transform="matrix(1,0,0,1,176.05000000011609,388.5) translate(37 23.6)"/><use xlink:href="#e" transform="matrix(1,0,0,1,171.05000000011609,431) translate(13 17.1)"/><use xlink:href="#f" transform="matrix(1,0,0,1,231.05000000011609,431) translate(0 17.1)"/><use xlink:href="#h" transform="matrix(1,0,0,1,171.05000000011609,463) translate(9.5 17.1)"/><use xlink:href="#d" transform="matrix(1,0,0,1,231.05000000011609,463) translate(0 17.1)"/><use xlink:href="#h" transform="matrix(1,0,0,1,171.05000000011609,495) translate(9.5 17.1)"/><use xlink:href="#D" transform="matrix(1,0,0,1,231.05000000011609,495) translate(0 17.1)"/><use xlink:href="#h" transform="matrix(1,0,0,1,171.05000000011609,527) translate(9.5 17.1)"/><use xlink:href="#i" transform="matrix(1,0,0,1,231.05000000011609,527) translate(0 17.1)"/><use xlink:href="#h" transform="matrix(1,0,0,1,171.05000000011609,559) translate(9.5 17.1)"/><use xlink:href="#E" transform="matrix(1,0,0,1,231.05000000011609,559) translate(0 17.1)"/><use xlink:href="#h" transform="matrix(1,0,0,1,171.05000000011609,591) translate(9.5 17.1)"/><use xlink:href="#l" transform="matrix(1,0,0,1,231.05000000011609,591) translate(0 17.1)"/><use xlink:href="#b" transform="matrix(1,0,0,1,171.05000000011609,623) translate(13.524999999999999 17.1)"/><use xlink:href="#F" transform="matrix(1,0,0,1,231.05000000011609,623) translate(0 17.1)"/><path d="M1620 356h200v200h-200z" fill="#fff"/><path d="M1620 356h200v200h-200zM1620 396h200M1680 396v160" stroke="#000" stroke-width="2" fill="none"/><use xlink:href="#G" transform="matrix(1,0,0,1,1630,356) translate(72.525 23.6)"/><use xlink:href="#e" transform="matrix(1,0,0,1,1625,398.5) translate(13 17.1)"/><use xlink:href="#f" transform="matrix(1,0,0,1,1685,398.5) translate(0 17.1)"/><use xlink:href="#h" transform="matrix(1,0,0,1,1625,430.5) translate(9.5 17.1)"/><use xlink:href="#H" transform="matrix(1,0,0,1,1685,430.5) translate(0 17.1)"/><use xlink:href="#h" transform="matrix(1,0,0,1,1625,462.5) translate(9.5 17.1)"/><use xlink:href="#I" transform="matrix(1,0,0,1,1685,462.5) translate(0 17.1)"/><use xlink:href="#b" transform="matrix(1,0,0,1,1625,494.5) translate(13.524999999999999 17.1)"/><use xlink:href="#d" transform="matrix(1,0,0,1,1685,494.5) translate(0 17.1)"/><use xlink:href="#h" transform="matrix(1,0,0,1,1625,526.5) translate(9.5 17.1)"/><use xlink:href="#l" transform="matrix(1,0,0,1,1685,526.5) translate(0 17.1)"/><path d="M1470.4 32h200v200h-200z" fill="#fff"/><path d="M1470.4 32h200v200h-200zM1470.4 72h200M1530.4 72v160" stroke="#000" stroke-width="2" fill="none"/><use xlink:href="#J" transform="matrix(1,0,0,1,1480.3999999999999,32) translate(42.074999999999996 23.6)"/><use xlink:href="#e" transform="matrix(1,0,0,1,1475.3999999999999,74.5) translate(13 17.1)"/><use xlink:href="#f" transform="matrix(1,0,0,1,1535.3999999999999,74.5) translate(0 17.1)"/><use xlink:href="#b" transform="matrix(1,0,0,1,1475.3999999999999,106.5) translate(13.524999999999999 17.1)"/><use xlink:href="#K" transform="matrix(1,0,0,1,1535.3999999999999,106.5) translate(0 17.1)"/><use xlink:href="#b" transform="matrix(1,0,0,1,1475.3999999999999,138.5) translate(13.524999999999999 17.1)"/><use xlink:href="#L" transform="matrix(1,0,0,1,1535.3999999999999,138.5) translate(0 17.1)"/><use xlink:href="#h" transform="matrix(1,0,0,1,1475.3999999999999,170.5) translate(9.5 17.1)"/><use xlink:href="#M" transform="matrix(1,0,0,1,1535.3999999999999,170.5) translate(0 17.1)"/><use xlink:href="#h" transform="matrix(1,0,0,1,1475.3999999999999,202.5) translate(9.5 17.1)"/><use xlink:href="#N" transform="matrix(1,0,0,1,1535.3999999999999,202.5) translate(0 17.1)"/><path d="M1470.4 810.85h200v200h-200z" fill="#fff"/><path d="M1470.4 810.85h200v200h-200zM1470.4 850.85h200M1530.4 850.85v160" stroke="#000" stroke-width="2" fill="none"/><use xlink:href="#O" transform="matrix(1,0,0,1,1480.3999999999999,810.8499999999999) translate(60.6 23.6)"/><use xlink:href="#e" transform="matrix(1,0,0,1,1475.3999999999999,853.3499999999999) translate(13 17.1)"/><use xlink:href="#f" transform="matrix(1,0,0,1,1535.3999999999999,853.3499999999999) translate(0 17.1)"/><use xlink:href="#b" transform="matrix(1,0,0,1,1475.3999999999999,885.3499999999999) translate(13.524999999999999 17.1)"/><use xlink:href="#P" transform="matrix(1,0,0,1,1535.3999999999999,885.3499999999999) translate(0 17.1)"/><use xlink:href="#b" transform="matrix(1,0,0,1,1475.3999999999999,917.3499999999999) translate(13.524999999999999 17.1)"/><use xlink:href="#L" transform="matrix(1,0,0,1,1535.3999999999999,917.3499999999999) translate(0 17.1)"/><use xlink:href="#h" transform="matrix(1,0,0,1,1475.3999999999999,949.3499999999999) translate(9.5 17.1)"/><use xlink:href="#M" transform="matrix(1,0,0,1,1535.3999999999999,949.3499999999999) translate(0 17.1)"/><use xlink:href="#h" transform="matrix(1,0,0,1,1475.3999999999999,981.3499999999999) translate(9.5 17.1)"/><use xlink:href="#N" transform="matrix(1,0,0,1,1535.3999999999999,981.3499999999999) translate(0 17.1)"/><path d="M266.05 707.75V682H780V120h80.68" stroke="#ef8d22" stroke-width="2" fill="none"/><path d="M276.05 707.75h-20M266.05 727.75v-20M879.05 130l-20-10 20-10M879.05 120h-20" stroke="#ef8d22" stroke-width="2" fill="#fff"/><path d="M266.05 885.75v13.1h594.13" stroke="#0c7cba" stroke-width="2" fill="none"/><path d="M256.05 885.75h20M266.05 865.75v20M878.55 908.85l-20-10 20-10M878.55 898.85h-20" stroke="#0c7cba" stroke-width="2" fill="#fff"/><path d="M1720 335V152h-29.78" stroke="#0c7cba" stroke-width="2" fill="none"/><path d="M1730 335h-20M1720 355v-20M1671.85 142l20 10-20 10M1671.85 152h20" stroke="#0c7cba" stroke-width="2" fill="#fff"/><path d="M1720 577v353.85h-29.78" stroke="#19967d" stroke-width="2" fill="none"/><path d="M1710 577h20M1720 557v20M1671.85 920.85l20 10-20 10M1671.85 930.85h20" stroke="#19967d" stroke-width="2" fill="#fff"/><path d="M1382.33 88h33.54v32h34.7" stroke="#c92d39" stroke-width="2" fill="none"/><path d="M1382.33 98V78M1362.33 88h20M1468.95 130l-20-10 20-10M1468.95 120h-20" stroke="#c92d39" stroke-width="2" fill="#fff"/><path d="M1381.83 866.85h33.8v32h34.95" stroke="#ef8d22" stroke-width="2" fill="none"/><path d="M1381.83 876.85v-20M1361.83 866.85h20M1468.95 908.85l-20-10 20-10M1468.95 898.85h-20" stroke="#ef8d22" stroke-width="2" fill="#fff"/><path d="M166.05 941h200v360h-200z" fill="#fff"/><path d="M166.05 941h200v360h-200zM166.05 981h200M226.05 981v320" stroke="#000" stroke-width="2" fill="none"/><use xlink:href="#Q" transform="matrix(1,0,0,1,176.05000000011609,941) translate(24.125 23.6)"/><use xlink:href="#b" transform="matrix(1,0,0,1,171.05000000011609,983.5) translate(13.524999999999999 17.1)"/><use xlink:href="#d" transform="matrix(1,0,0,1,231.05000000011609,983.5) translate(0 17.1)"/><use xlink:href="#h" transform="matrix(1,0,0,1,171.05000000011609,1015.5) translate(9.5 17.1)"/><use xlink:href="#R" transform="matrix(1,0,0,1,231.05000000011609,1015.5) translate(0 17.1)"/><use xlink:href="#h" transform="matrix(1,0,0,1,171.05000000011609,1047.5) translate(9.5 17.1)"/><use xlink:href="#S" transform="matrix(1,0,0,1,231.05000000011609,1047.5) translate(0 17.1)"/><use xlink:href="#h" transform="matrix(1,0,0,1,171.05000000011609,1079.5) translate(9.5 17.1)"/><use xlink:href="#T" transform="matrix(1,0,0,1,231.05000000011609,1079.5) translate(0 17.1)"/><use xlink:href="#h" transform="matrix(1,0,0,1,171.05000000011609,1111.5) translate(9.5 17.1)"/><use xlink:href="#U" transform="matrix(1,0,0,1,231.05000000011609,1111.5) translate(0 17.1)"/><use xlink:href="#h" transform="matrix(1,0,0,1,171.05000000011609,1143.5) translate(9.5 17.1)"/><use xlink:href="#V" transform="matrix(1,0,0,1,231.05000000011609,1143.5) translate(0 17.1)"/><use xlink:href="#h" transform="matrix(1,0,0,1,171.05000000011609,1175.5) translate(9.5 17.1)"/><use xlink:href="#W" transform="matrix(1,0,0,1,231.05000000011609,1175.5) translate(0 17.1)"/><use xlink:href="#e" transform="matrix(1,0,0,1,171.05000000011609,1207.5) translate(13 17.1)"/><use xlink:href="#f" transform="matrix(1,0,0,1,231.05000000011609,1207.5) translate(0 17.1)"/><use xlink:href="#h" transform="matrix(1,0,0,1,171.05000000011609,1239.5) translate(9.5 17.1)"/><use xlink:href="#X" transform="matrix(1,0,0,1,231.05000000011609,1239.5) translate(0 17.1)"/><use xlink:href="#h" transform="matrix(1,0,0,1,171.05000000011609,1271.5) translate(9.5 17.1)"/><use xlink:href="#Y" transform="matrix(1,0,0,1,231.05000000011609,1271.5) translate(0 17.1)"/><path d="M880 1010.85h200v360H880z" fill="#fff"/><path d="M880 1010.85h200v360H880zM880 1050.85h200M940 1050.85v320" stroke="#000" stroke-width="2" fill="none"/><use xlink:href="#Z" transform="matrix(1,0,0,1,890,1010.8499999999999) translate(34.099999999999994 23.6)"/><use xlink:href="#b" transform="matrix(1,0,0,1,885,1053.35) translate(13.524999999999999 17.1)"/><use xlink:href="#t" transform="matrix(1,0,0,1,945,1053.35) translate(0 17.1)"/><use xlink:href="#h" transform="matrix(1,0,0,1,885,1085.35) translate(9.5 17.1)"/><use xlink:href="#R" transform="matrix(1,0,0,1,945,1085.35) translate(0 17.1)"/><use xlink:href="#h" transform="matrix(1,0,0,1,885,1117.35) translate(9.5 17.1)"/><use xlink:href="#S" transform="matrix(1,0,0,1,945,1117.35) translate(0 17.1)"/><use xlink:href="#h" transform="matrix(1,0,0,1,885,1149.35) translate(9.5 17.1)"/><use xlink:href="#T" transform="matrix(1,0,0,1,945,1149.35) translate(0 17.1)"/><use xlink:href="#h" transform="matrix(1,0,0,1,885,1181.35) translate(9.5 17.1)"/><use xlink:href="#U" transform="matrix(1,0,0,1,945,1181.35) translate(0 17.1)"/><use xlink:href="#h" transform="matrix(1,0,0,1,885,1213.35) translate(9.5 17.1)"/><use xlink:href="#V" transform="matrix(1,0,0,1,945,1213.35) translate(0 17.1)"/><use xlink:href="#h" transform="matrix(1,0,0,1,885,1245.35) translate(9.5 17.1)"/><use xlink:href="#W" transform="matrix(1,0,0,1,945,1245.35) translate(0 17.1)"/><use xlink:href="#e" transform="matrix(1,0,0,1,885,1277.35) translate(13 17.1)"/><use xlink:href="#f" transform="matrix(1,0,0,1,945,1277.35) translate(0 17.1)"/><use xlink:href="#h" transform="matrix(1,0,0,1,885,1309.35) translate(9.5 17.1)"/><use xlink:href="#aa" transform="matrix(1,0,0,1,945,1309.35) translate(0 17.1)"/><use xlink:href="#h" transform="matrix(1,0,0,1,885,1341.35) translate(9.5 17.1)"/><use xlink:href="#ab" transform="matrix(1,0,0,1,945,1341.35) translate(0 17.1)"/><path d="M880.5 240h200v360h-200z" fill="#fff"/><path d="M880.5 240h200v360h-200zM880.5 280h200M940.5 280v320" stroke="#000" stroke-width="2" fill="none"/><use xlink:href="#ac" transform="matrix(1,0,0,1,890.499999999768,240) translate(39.64999999999999 23.6)"/><use xlink:href="#b" transform="matrix(1,0,0,1,885.499999999768,282.5) translate(13.524999999999999 17.1)"/><use xlink:href="#d" transform="matrix(1,0,0,1,945.499999999768,282.5) translate(0 17.1)"/><use xlink:href="#h" transform="matrix(1,0,0,1,885.499999999768,314.5) translate(9.5 17.1)"/><use xlink:href="#R" transform="matrix(1,0,0,1,945.499999999768,314.5) translate(0 17.1)"/><use xlink:href="#h" transform="matrix(1,0,0,1,885.499999999768,346.5) translate(9.5 17.1)"/><use xlink:href="#S" transform="matrix(1,0,0,1,945.499999999768,346.5) translate(0 17.1)"/><use xlink:href="#h" transform="matrix(1,0,0,1,885.499999999768,378.5) translate(9.5 17.1)"/><use xlink:href="#T" transform="matrix(1,0,0,1,945.499999999768,378.5) translate(0 17.1)"/><use xlink:href="#h" transform="matrix(1,0,0,1,885.499999999768,410.5) translate(9.5 17.1)"/><use xlink:href="#U" transform="matrix(1,0,0,1,945.499999999768,410.5) translate(0 17.1)"/><use xlink:href="#h" transform="matrix(1,0,0,1,885.499999999768,442.5) translate(9.5 17.1)"/><use xlink:href="#V" transform="matrix(1,0,0,1,945.499999999768,442.5) translate(0 17.1)"/><use xlink:href="#e" transform="matrix(1,0,0,1,885.499999999768,474.5) translate(13 17.1)"/><use xlink:href="#W" transform="matrix(1,0,0,1,945.499999999768,474.5) translate(0 17.1)"/><use xlink:href="#e" transform="matrix(1,0,0,1,885.499999999768,506.5) translate(13 17.1)"/><use xlink:href="#f" transform="matrix(1,0,0,1,945.499999999768,506.5) translate(0 17.1)"/><use xlink:href="#h" transform="matrix(1,0,0,1,885.499999999768,538.5) translate(9.5 17.1)"/><use xlink:href="#aa" transform="matrix(1,0,0,1,945.499999999768,538.5) translate(0 17.1)"/><use xlink:href="#h" transform="matrix(1,0,0,1,885.499999999768,570.5) translate(9.5 17.1)"/><use xlink:href="#ab" transform="matrix(1,0,0,1,945.499999999768,570.5) translate(0 17.1)"/><path d="M859.5 88h-20v208h20" stroke="#834187" stroke-width="2" fill="none"/><path d="M859.5 78v20M879.5 88h-20M859.5 286v20M879.5 296h-20" stroke="#834187" stroke-width="2" fill="#fff"/><path d="M859 866.85h-20v200h20" stroke="#000" stroke-width="2" fill="none"/><path d="M859 856.85v20M879 866.85h-20M859 1056.85v20M879 1066.85h-20" stroke="#000" stroke-width="2" fill="#fff"/><path d="M387.05 784.75H700V720h835.3V508h64.88" stroke="#834187" stroke-width="2" fill="none"/><path d="M387.05 794.75v-20M367.05 784.75h20M1618.55 518l-20-10 20-10M1618.55 508h-20" stroke="#834187" stroke-width="2" fill="#fff"/><path d="M1101.5 88h19.42v32h20.6" stroke="#834187" stroke-width="2" fill="none"/><path d="M1101.5 98V78M1081.5 88h20M1159.9 130l-20-10 20-10M1159.9 120h-20" stroke="#834187" stroke-width="2" fill="#fff"/><path d="M1101 866.85h19.42v32h20.6" stroke="#000" stroke-width="2" fill="none"/><path d="M1101 876.85v-20M1081 866.85h20M1159.4 908.85l-20-10 20-10M1159.4 898.85h-20" stroke="#000" stroke-width="2" fill="#fff"/><path d="M145.05 748.75h-20V476.5h21.18" stroke="#19967d" stroke-width="2" fill="none"/><path d="M145.05 738.75v20M165.05 748.75h-20M164.6 486.5l-20-10 20-10M164.6 476.5h-20" stroke="#19967d" stroke-width="2" fill="#fff"/><path d="M1270.4 388.5h200v136h-200z" fill="#fff"/><path d="M1270.4 388.5h200v136h-200zM1270.4 428.5h200M1330.4 428.5v96" stroke="#000" stroke-width="2" fill="none"/><use xlink:href="#ad" transform="matrix(1,0,0,1,1280.3999999999999,388.5) translate(50.599999999999994 23.6)"/><use xlink:href="#e" transform="matrix(1,0,0,1,1275.3999999999999,431) translate(13 17.1)"/><use xlink:href="#f" transform="matrix(1,0,0,1,1335.3999999999999,431) translate(0 17.1)"/><use xlink:href="#h" transform="matrix(1,0,0,1,1275.3999999999999,463) translate(9.5 17.1)"/><use xlink:href="#i" transform="matrix(1,0,0,1,1335.3999999999999,463) translate(0 17.1)"/><use xlink:href="#h" transform="matrix(1,0,0,1,1275.3999999999999,495) translate(9.5 17.1)"/><use xlink:href="#ae" transform="matrix(1,0,0,1,1335.3999999999999,495) translate(0 17.1)"/><path d="M1370.4 545.5V780H735.3v68.75H385.87" stroke="#c92d39" stroke-width="2" fill="none"/><path d="M1360.4 545.5h20M1370.4 525.5v20M367.5 838.75l20 10-20 10M367.5 848.75h20" stroke="#c92d39" stroke-width="2" fill="#fff"/><path d="M145.05 997h-20V784.75h20" stroke="#ef8d22" stroke-width="2" fill="none"/><path d="M145.05 987v20M165.05 997h-20M145.05 774.75v20M165.05 784.75h-20" stroke="#ef8d22" stroke-width="2" fill="#fff"/><path d="M387.05 637.66H803.7V640h511.37v-94.5" stroke="#19967d" stroke-width="2" fill="none"/><path d="M387.05 647.66v-20M367.05 637.66h20M1305.07 545.5h20M1315.07 525.5v20" stroke="#19967d" stroke-width="2" fill="#fff"/><path d="M1426.38 545.5v417.55h-32.27v-.2h-13.44" stroke="#0c7cba" stroke-width="2" fill="none"/><path d="M1416.38 545.5h20M1426.38 525.5v20M1362.28 952.85l20 10-20 10M1362.28 962.85h20" stroke="#0c7cba" stroke-width="2" fill="#fff"/><path d="M1381.16 184h15.48v183.5" stroke="#834187" stroke-width="2" fill="none"/><path d="M1362.78 174l20 10-20 10M1362.78 184h20M1406.64 367.5h-20M1396.64 387.5v-20" stroke="#834187" stroke-width="2" fill="#fff"/><path d="M523.27 32h200v136h-200z" fill="#fff"/><path d="M523.27 32h200v136h-200zM523.27 72h200M583.27 72v96" stroke="#000" stroke-width="2" fill="none"/><use xlink:href="#af" transform="matrix(1,0,0,1,533.2749999999421,32) translate(34.575 23.6)"/><use xlink:href="#b" transform="matrix(1,0,0,1,528.2749999999421,74.5) translate(13.524999999999999 17.1)"/><use xlink:href="#c" transform="matrix(1,0,0,1,588.2749999999421,74.5) translate(0 17.1)"/><use xlink:href="#b" transform="matrix(1,0,0,1,528.2749999999421,106.5) translate(13.524999999999999 17.1)"/><use xlink:href="#o" transform="matrix(1,0,0,1,588.2749999999421,106.5) translate(0 17.1)"/><use xlink:href="#e" transform="matrix(1,0,0,1,528.2749999999421,138.5) translate(13 17.1)"/><use xlink:href="#f" transform="matrix(1,0,0,1,588.2749999999421,138.5) translate(0 17.1)"/><path d="M387.05 88h20v139h-20" stroke="#c92d39" stroke-width="2" fill="none"/><path d="M387.05 98V78M367.05 88h20M387.05 237v-20M367.05 227h20" stroke="#c92d39" stroke-width="2" fill="#fff"/><path d="M213.74 707.75v-20H85.3V120h60.93" stroke="#0c7cba" stroke-width="2" fill="none"/><path d="M223.74 707.75h-20M213.74 727.75v-20M164.6 130l-20-10 20-10M164.6 120h-20" stroke="#0c7cba" stroke-width="2" fill="#fff"/><path d="M502.27 88H435.3v175h-48.25" stroke="#19967d" stroke-width="2" fill="none"/><path d="M502.27 78v20M522.27 88h-20M387.05 273v-20M367.05 263h20" stroke="#19967d" stroke-width="2" fill="#fff"/><path d="M859.5 52h-57.6v35.88h-58.8" stroke="#0c7cba" stroke-width="2" fill="none"/><path d="M859.5 42v20M879.5 52h-20M724.72 77.88l20 10-20 10M724.72 87.88h20" stroke="#0c7cba" stroke-width="2" fill="#fff"/><path d="M1360.83-176h200v136h-200z" fill="#fff"/><path d="M1360.83-176h200v136h-200zM1360.83-136h200M1420.83-136v96" stroke="#000" stroke-width="2" fill="none"/><use xlink:href="#ag" transform="matrix(1,0,0,1,1370.8333333335268,-176) translate(32.25 23.6)"/><use xlink:href="#b" transform="matrix(1,0,0,1,1365.8333333335268,-133.5) translate(13.524999999999999 17.1)"/><use xlink:href="#K" transform="matrix(1,0,0,1,1425.8333333335268,-133.5) translate(0 17.1)"/><use xlink:href="#h" transform="matrix(1,0,0,1,1365.8333333335268,-101.5) translate(9.5 17.1)"/><use xlink:href="#w" transform="matrix(1,0,0,1,1425.8333333335268,-101.5) translate(0 17.1)"/><use xlink:href="#e" transform="matrix(1,0,0,1,1365.8333333335268,-69.5) translate(13 17.1)"/><use xlink:href="#f" transform="matrix(1,0,0,1,1425.8333333335268,-69.5) translate(0 17.1)"/><path d="M961.33-176h200v136h-200z" fill="#fff"/><path d="M961.33-176h200v136h-200zM961.33-136h200M1021.33-136v96" stroke="#000" stroke-width="2" fill="none"/><use xlink:href="#ah" transform="matrix(1,0,0,1,971.3333333332948,-176) translate(33.55 23.6)"/><use xlink:href="#b" transform="matrix(1,0,0,1,966.3333333332948,-133.5) translate(13.524999999999999 17.1)"/><use xlink:href="#K" transform="matrix(1,0,0,1,1026.3333333332948,-133.5) translate(0 17.1)"/><use xlink:href="#h" transform="matrix(1,0,0,1,966.3333333332948,-101.5) translate(9.5 17.1)"/><use xlink:href="#w" transform="matrix(1,0,0,1,1026.3333333332948,-101.5) translate(0 17.1)"/><use xlink:href="#e" transform="matrix(1,0,0,1,966.3333333332948,-69.5) translate(13 17.1)"/><use xlink:href="#f" transform="matrix(1,0,0,1,1026.3333333332948,-69.5) translate(0 17.1)"/><path d="M1182.33-120.12H1201V11" stroke="#c92d39" stroke-width="2" fill="none"/><path d="M1182.33-110.12v-20M1162.33-120.12h20M1211 11h-20M1201 31V11" stroke="#c92d39" stroke-width="2" fill="#fff"/><path d="M1339.83-120.12h-33.3V11" stroke="#19967d" stroke-width="2" fill="none"/><path d="M1339.83-130.12v20M1359.83-120.12h-20M1316.52 11h-20M1306.52 31V11" stroke="#19967d" stroke-width="2" fill="#fff"/><path d="M1160-336h200v136h-200z" fill="#fff"/><path d="M1160-336h200v136h-200zM1160-296h200M1220-296v96" stroke="#000" stroke-width="2" fill="none"/><use xlink:href="#ai" transform="matrix(1,0,0,1,1170,-336) translate(43.025 23.6)"/><use xlink:href="#b" transform="matrix(1,0,0,1,1165,-293.5) translate(13.524999999999999 17.1)"/><use xlink:href="#K" transform="matrix(1,0,0,1,1225,-293.5) translate(0 17.1)"/><use xlink:href="#h" transform="matrix(1,0,0,1,1165,-261.5) translate(9.5 17.1)"/><use xlink:href="#w" transform="matrix(1,0,0,1,1225,-261.5) translate(0 17.1)"/><use xlink:href="#e" transform="matrix(1,0,0,1,1165,-229.5) translate(13 17.1)"/><use xlink:href="#f" transform="matrix(1,0,0,1,1225,-229.5) translate(0 17.1)"/><path d="M1260-179V11" stroke="#0c7cba" stroke-width="2" fill="none"/><path d="M1250-179h20M1260-199v20M1270 11h-20M1260 31V11" stroke="#0c7cba" stroke-width="2" fill="#fff"/><defs><path d="M30 0v-248h187v28H63v79h144v27H63v87h162V0H30" id="aj"/><path d="M210-169c-67 3-38 105-44 169h-31v-121c0-29-5-50-35-48C34-165 62-65 56 0H25l-1-190h30c1 10-1 24 2 32 10-44 99-50 107 0 11-21 27-35 58-36 85-2 47 119 55 194h-31v-121c0-29-5-49-35-48" id="ak"/><path d="M115-194c55 1 70 41 70 98S169 2 115 4C84 4 66-9 55-30l1 105H24l-1-265h31l2 30c10-21 28-34 59-34zm-8 174c40 0 45-34 45-75s-6-73-45-74c-42 0-51 32-51 76 0 43 10 73 51 73" id="al"/><path d="M24 0v-261h32V0H24" id="am"/><path d="M100-194c62-1 85 37 85 99 1 63-27 99-86 99S16-35 15-95c0-66 28-99 85-99zM99-20c44 1 53-31 53-75 0-43-8-75-51-75s-53 32-53 75 10 74 51 75" id="an"/><path d="M179-190L93 31C79 59 56 82 12 73V49c39 6 53-20 64-50L1-190h34L92-34l54-156h33" id="ao"/><path d="M100-194c63 0 86 42 84 106H49c0 40 14 67 53 68 26 1 43-12 49-29l28 8c-11 28-37 45-77 45C44 4 14-33 15-96c1-61 26-98 85-98zm52 81c6-60-76-77-97-28-3 7-6 17-6 28h103" id="ap"/><g id="a"><use transform="matrix(0.05,0,0,0.05,0,0)" xlink:href="#aj"/><use transform="matrix(0.05,0,0,0.05,12,0)" xlink:href="#ak"/><use transform="matrix(0.05,0,0,0.05,26.950000000000003,0)" xlink:href="#al"/><use transform="matrix(0.05,0,0,0.05,36.95,0)" xlink:href="#am"/><use transform="matrix(0.05,0,0,0.05,40.900000000000006,0)" xlink:href="#an"/><use transform="matrix(0.05,0,0,0.05,50.900000000000006,0)" xlink:href="#ao"/><use transform="matrix(0.05,0,0,0.05,59.900000000000006,0)" xlink:href="#ap"/><use transform="matrix(0.05,0,0,0.05,69.9,0)" xlink:href="#ap"/></g><path d="M63-220v92h138v28H63V0H30v-248h175v28H63" id="aq"/><path d="M194 0L95-120 63-95V0H30v-248h33v124l119-124h40L117-140 236 0h-42" id="ar"/><g id="b"><use transform="matrix(0.05,0,0,0.05,0,0)" xlink:href="#aq"/><use transform="matrix(0.05,0,0,0.05,10.950000000000001,0)" xlink:href="#ar"/></g><path d="M84 4C-5 8 30-112 23-190h32v120c0 31 7 50 39 49 72-2 45-101 50-169h31l1 190h-30c-1-10 1-25-2-33-11 22-28 36-60 37" id="as"/><path d="M135-143c-3-34-86-38-87 0 15 53 115 12 119 90S17 21 10-45l28-5c4 36 97 45 98 0-10-56-113-15-118-90-4-57 82-63 122-42 12 7 21 19 24 35" id="at"/><path d="M114-163C36-179 61-72 57 0H25l-1-190h30c1 12-1 29 2 39 6-27 23-49 58-41v29" id="au"/><g id="c"><use transform="matrix(0.05,0,0,0.05,0,0)" xlink:href="#as"/><use transform="matrix(0.05,0,0,0.05,10,0)" xlink:href="#at"/><use transform="matrix(0.05,0,0,0.05,19,0)" xlink:href="#ap"/><use transform="matrix(0.05,0,0,0.05,29,0)" xlink:href="#au"/></g><path d="M96-169c-40 0-48 33-48 73s9 75 48 75c24 0 41-14 43-38l32 2c-6 37-31 61-74 61-59 0-76-41-82-99-10-93 101-131 147-64 4 7 5 14 7 22l-32 3c-4-21-16-35-41-35" id="av"/><path d="M141-36C126-15 110 5 73 4 37 3 15-17 15-53c-1-64 63-63 125-63 3-35-9-54-41-54-24 1-41 7-42 31l-33-3c5-37 33-52 76-52 45 0 72 20 72 64v82c-1 20 7 32 28 27v20c-31 9-61-2-59-35zM48-53c0 20 12 33 32 33 41-3 63-29 60-74-43 2-92-5-92 41" id="aw"/><path d="M117-194c89-4 53 116 60 194h-32v-121c0-31-8-49-39-48C34-167 62-67 57 0H25l-1-190h30c1 10-1 24 2 32 11-22 29-35 61-36" id="ax"/><g id="d"><use transform="matrix(0.05,0,0,0.05,0,0)" xlink:href="#av"/><use transform="matrix(0.05,0,0,0.05,9,0)" xlink:href="#an"/><use transform="matrix(0.05,0,0,0.05,19,0)" xlink:href="#ak"/><use transform="matrix(0.05,0,0,0.05,33.95,0)" xlink:href="#al"/><use transform="matrix(0.05,0,0,0.05,43.95,0)" xlink:href="#aw"/><use transform="matrix(0.05,0,0,0.05,53.95,0)" xlink:href="#ax"/><use transform="matrix(0.05,0,0,0.05,63.95,0)" xlink:href="#ao"/></g><path d="M30-248c87 1 191-15 191 75 0 78-77 80-158 76V0H30v-248zm33 125c57 0 124 11 124-50 0-59-68-47-124-48v98" id="ay"/><g id="e"><use transform="matrix(0.05,0,0,0.05,0,0)" xlink:href="#ay"/><use transform="matrix(0.05,0,0,0.05,12,0)" xlink:href="#ar"/></g><path d="M24-231v-30h32v30H24zM24 0v-190h32V0H24" id="az"/><path d="M85-194c31 0 48 13 60 33l-1-100h32l1 261h-30c-2-10 0-23-3-31C134-8 116 4 85 4 32 4 16-35 15-94c0-66 23-100 70-100zm9 24c-40 0-46 34-46 75 0 40 6 74 45 74 42 0 51-32 51-76 0-42-9-74-50-73" id="aA"/><g id="f"><use transform="matrix(0.05,0,0,0.05,0,0)" xlink:href="#az"/><use transform="matrix(0.05,0,0,0.05,3.95,0)" xlink:href="#aA"/></g><path d="M212-179c-10-28-35-45-73-45-59 0-87 40-87 99 0 60 29 101 89 101 43 0 62-24 78-52l27 14C228-24 195 4 139 4 59 4 22-46 18-125c-6-104 99-153 187-111 19 9 31 26 39 46" id="aB"/><g id="g"><use transform="matrix(0.05,0,0,0.05,0,0)" xlink:href="#aB"/><use transform="matrix(0.05,0,0,0.05,12.950000000000001,0)" xlink:href="#an"/><use transform="matrix(0.05,0,0,0.05,22.950000000000003,0)" xlink:href="#ak"/><use transform="matrix(0.05,0,0,0.05,37.900000000000006,0)" xlink:href="#al"/><use transform="matrix(0.05,0,0,0.05,47.900000000000006,0)" xlink:href="#aw"/><use transform="matrix(0.05,0,0,0.05,57.900000000000006,0)" xlink:href="#ax"/><use transform="matrix(0.05,0,0,0.05,67.9,0)" xlink:href="#ao"/></g><g id="h"><use transform="matrix(0.05,0,0,0.05,0,0)" xlink:href="#ar"/><use transform="matrix(0.05,0,0,0.05,12,0)" xlink:href="#ap"/><use transform="matrix(0.05,0,0,0.05,22,0)" xlink:href="#ao"/></g><g id="i"><use transform="matrix(0.05,0,0,0.05,0,0)" xlink:href="#ax"/><use transform="matrix(0.05,0,0,0.05,10,0)" xlink:href="#aw"/><use transform="matrix(0.05,0,0,0.05,20,0)" xlink:href="#ak"/><use transform="matrix(0.05,0,0,0.05,34.95,0)" xlink:href="#ap"/></g><path d="M101-234c-31-9-42 10-38 44h38v23H63V0H32v-167H5v-23h27c-7-52 17-82 69-68v24" id="aC"/><path d="M59-47c-2 24 18 29 38 22v24C64 9 27 4 27-40v-127H5v-23h24l9-43h21v43h35v23H59v120" id="aD"/><path d="M-5 72V49h209v23H-5" id="aE"/><g id="j"><use transform="matrix(0.05,0,0,0.05,0,0)" xlink:href="#aA"/><use transform="matrix(0.05,0,0,0.05,10,0)" xlink:href="#ap"/><use transform="matrix(0.05,0,0,0.05,20,0)" xlink:href="#aC"/><use transform="matrix(0.05,0,0,0.05,25,0)" xlink:href="#aw"/><use transform="matrix(0.05,0,0,0.05,35,0)" xlink:href="#as"/><use transform="matrix(0.05,0,0,0.05,45,0)" xlink:href="#am"/><use transform="matrix(0.05,0,0,0.05,48.95,0)" xlink:href="#aD"/><use transform="matrix(0.05,0,0,0.05,53.95,0)" xlink:href="#aE"/><use transform="matrix(0.05,0,0,0.05,63.95,0)" xlink:href="#av"/><use transform="matrix(0.05,0,0,0.05,72.95,0)" xlink:href="#as"/><use transform="matrix(0.05,0,0,0.05,82.95,0)" xlink:href="#au"/><use transform="matrix(0.05,0,0,0.05,88.9,0)" xlink:href="#au"/><use transform="matrix(0.05,0,0,0.05,94.85000000000001,0)" xlink:href="#ap"/><use transform="matrix(0.05,0,0,0.05,104.85000000000001,0)" xlink:href="#ax"/><use transform="matrix(0.05,0,0,0.05,114.85000000000001,0)" xlink:href="#av"/><use transform="matrix(0.05,0,0,0.05,123.85000000000001,0)" xlink:href="#ao"/></g><path d="M137 0h-34L2-248h35l83 218 83-218h36" id="aF"/><g id="k"><use transform="matrix(0.05,0,0,0.05,0,0)" xlink:href="#aF"/><use transform="matrix(0.05,0,0,0.05,11,0)" xlink:href="#ap"/><use transform="matrix(0.05,0,0,0.05,21,0)" xlink:href="#ax"/><use transform="matrix(0.05,0,0,0.05,31,0)" xlink:href="#aA"/><use transform="matrix(0.05,0,0,0.05,41,0)" xlink:href="#an"/><use transform="matrix(0.05,0,0,0.05,51,0)" xlink:href="#au"/></g><g id="l"><use transform="matrix(0.05,0,0,0.05,0,0)" xlink:href="#as"/><use transform="matrix(0.05,0,0,0.05,10,0)" xlink:href="#as"/><use transform="matrix(0.05,0,0,0.05,20,0)" xlink:href="#az"/><use transform="matrix(0.05,0,0,0.05,23.95,0)" xlink:href="#aA"/></g><g id="m"><use transform="matrix(0.05,0,0,0.05,0,0)" xlink:href="#aB"/><use transform="matrix(0.05,0,0,0.05,12.950000000000001,0)" xlink:href="#am"/><use transform="matrix(0.05,0,0,0.05,16.900000000000002,0)" xlink:href="#az"/><use transform="matrix(0.05,0,0,0.05,20.85,0)" xlink:href="#ap"/><use transform="matrix(0.05,0,0,0.05,30.85,0)" xlink:href="#ax"/><use transform="matrix(0.05,0,0,0.05,40.85,0)" xlink:href="#aD"/></g><path d="M33 0v-248h34V0H33" id="aG"/><path d="M108 0H70L1-190h34L89-25l56-165h34" id="aH"/><g id="n"><use transform="matrix(0.05,0,0,0.05,0,0)" xlink:href="#aG"/><use transform="matrix(0.05,0,0,0.05,5,0)" xlink:href="#ax"/><use transform="matrix(0.05,0,0,0.05,15,0)" xlink:href="#aH"/><use transform="matrix(0.05,0,0,0.05,24,0)" xlink:href="#an"/><use transform="matrix(0.05,0,0,0.05,34,0)" xlink:href="#az"/><use transform="matrix(0.05,0,0,0.05,37.95,0)" xlink:href="#av"/><use transform="matrix(0.05,0,0,0.05,46.95,0)" xlink:href="#ap"/></g><g id="o"><use transform="matrix(0.05,0,0,0.05,0,0)" xlink:href="#av"/><use transform="matrix(0.05,0,0,0.05,9,0)" xlink:href="#am"/><use transform="matrix(0.05,0,0,0.05,12.949999999999998,0)" xlink:href="#az"/><use transform="matrix(0.05,0,0,0.05,16.9,0)" xlink:href="#ap"/><use transform="matrix(0.05,0,0,0.05,26.899999999999995,0)" xlink:href="#ax"/><use transform="matrix(0.05,0,0,0.05,36.9,0)" xlink:href="#aD"/></g><g id="p"><use transform="matrix(0.05,0,0,0.05,0,0)" xlink:href="#av"/><use transform="matrix(0.05,0,0,0.05,9,0)" xlink:href="#as"/><use transform="matrix(0.05,0,0,0.05,19,0)" xlink:href="#au"/><use transform="matrix(0.05,0,0,0.05,24.95,0)" xlink:href="#ap"/><use transform="matrix(0.05,0,0,0.05,34.95,0)" xlink:href="#ax"/><use transform="matrix(0.05,0,0,0.05,44.95,0)" xlink:href="#av"/><use transform="matrix(0.05,0,0,0.05,53.95,0)" xlink:href="#ao"/></g><path d="M143 0L79-87 56-68V0H24v-261h32v163l83-92h37l-77 82L181 0h-38" id="aI"/><g id="q"><use transform="matrix(0.05,0,0,0.05,0,0)" xlink:href="#aI"/><use transform="matrix(0.05,0,0,0.05,9,0)" xlink:href="#ap"/><use transform="matrix(0.05,0,0,0.05,19,0)" xlink:href="#ao"/></g><g id="r"><use transform="matrix(0.05,0,0,0.05,0,0)" xlink:href="#au"/><use transform="matrix(0.05,0,0,0.05,5.95,0)" xlink:href="#ap"/><use transform="matrix(0.05,0,0,0.05,15.949999999999998,0)" xlink:href="#aC"/><use transform="matrix(0.05,0,0,0.05,20.95,0)" xlink:href="#ap"/><use transform="matrix(0.05,0,0,0.05,30.950000000000003,0)" xlink:href="#au"/><use transform="matrix(0.05,0,0,0.05,36.9,0)" xlink:href="#ap"/><use transform="matrix(0.05,0,0,0.05,46.9,0)" xlink:href="#ax"/><use transform="matrix(0.05,0,0,0.05,56.900000000000006,0)" xlink:href="#av"/><use transform="matrix(0.05,0,0,0.05,65.9,0)" xlink:href="#ap"/></g><path d="M160-131c35 5 61 23 61 61C221 17 115-2 30 0v-248c76 3 177-17 177 60 0 33-19 50-47 57zm-97-11c50-1 110 9 110-42 0-47-63-36-110-37v79zm0 115c55-2 124 14 124-45 0-56-70-42-124-44v89" id="aJ"/><g id="s"><use transform="matrix(0.05,0,0,0.05,0,0)" xlink:href="#aJ"/><use transform="matrix(0.05,0,0,0.05,12,0)" xlink:href="#az"/><use transform="matrix(0.05,0,0,0.05,15.949999999999998,0)" xlink:href="#am"/><use transform="matrix(0.05,0,0,0.05,19.9,0)" xlink:href="#am"/></g><g id="t"><use transform="matrix(0.05,0,0,0.05,0,0)" xlink:href="#aH"/><use transform="matrix(0.05,0,0,0.05,9,0)" xlink:href="#ap"/><use transform="matrix(0.05,0,0,0.05,19,0)" xlink:href="#ax"/><use transform="matrix(0.05,0,0,0.05,29,0)" xlink:href="#aA"/><use transform="matrix(0.05,0,0,0.05,39,0)" xlink:href="#an"/><use transform="matrix(0.05,0,0,0.05,49,0)" xlink:href="#au"/></g><g id="u"><use transform="matrix(0.05,0,0,0.05,0,0)" xlink:href="#au"/><use transform="matrix(0.05,0,0,0.05,5.95,0)" xlink:href="#ap"/><use transform="matrix(0.05,0,0,0.05,15.949999999999998,0)" xlink:href="#aC"/><use transform="matrix(0.05,0,0,0.05,20.95,0)" xlink:href="#ap"/><use transform="matrix(0.05,0,0,0.05,30.950000000000003,0)" xlink:href="#au"/><use transform="matrix(0.05,0,0,0.05,36.9,0)" xlink:href="#au"/><use transform="matrix(0.05,0,0,0.05,42.85,0)" xlink:href="#ap"/><use transform="matrix(0.05,0,0,0.05,52.85,0)" xlink:href="#ax"/><use transform="matrix(0.05,0,0,0.05,62.85,0)" xlink:href="#av"/><use transform="matrix(0.05,0,0,0.05,71.85,0)" xlink:href="#ap"/></g><g id="v"><use transform="matrix(0.05,0,0,0.05,0,0)" xlink:href="#av"/><use transform="matrix(0.05,0,0,0.05,9,0)" xlink:href="#as"/><use transform="matrix(0.05,0,0,0.05,19,0)" xlink:href="#au"/><use transform="matrix(0.05,0,0,0.05,24.95,0)" xlink:href="#au"/><use transform="matrix(0.05,0,0,0.05,30.899999999999995,0)" xlink:href="#ap"/><use transform="matrix(0.05,0,0,0.05,40.9,0)" xlink:href="#ax"/><use transform="matrix(0.05,0,0,0.05,50.9,0)" xlink:href="#av"/><use transform="matrix(0.05,0,0,0.05,59.900000000000006,0)" xlink:href="#ao"/></g><g id="w"><use transform="matrix(0.05,0,0,0.05,0,0)" xlink:href="#aA"/><use transform="matrix(0.05,0,0,0.05,10,0)" xlink:href="#aw"/><use transform="matrix(0.05,0,0,0.05,20,0)" xlink:href="#aD"/><use transform="matrix(0.05,0,0,0.05,25,0)" xlink:href="#ap"/></g><path d="M232-93c-1 65-40 97-104 97C67 4 28-28 28-90v-158h33c8 89-33 224 67 224 102 0 64-133 71-224h33v155" id="aK"/><g id="x"><use transform="matrix(0.05,0,0,0.05,0,0)" xlink:href="#aK"/><use transform="matrix(0.05,0,0,0.05,12.950000000000001,0)" xlink:href="#at"/><use transform="matrix(0.05,0,0,0.05,21.950000000000003,0)" xlink:href="#ap"/><use transform="matrix(0.05,0,0,0.05,31.950000000000003,0)" xlink:href="#au"/></g><path d="M87 75C49 33 22-17 22-94c0-76 28-126 65-167h31c-38 41-64 92-64 168S80 34 118 75H87" id="aL"/><g id="y"><use transform="matrix(0.05,0,0,0.05,0,0)" xlink:href="#aL"/><use transform="matrix(0.05,0,0,0.05,5.95,0)" xlink:href="#aA"/><use transform="matrix(0.05,0,0,0.05,15.949999999999998,0)" xlink:href="#ap"/><use transform="matrix(0.05,0,0,0.05,25.950000000000003,0)" xlink:href="#aC"/><use transform="matrix(0.05,0,0,0.05,30.950000000000003,0)" xlink:href="#aw"/><use transform="matrix(0.05,0,0,0.05,40.95,0)" xlink:href="#as"/><use transform="matrix(0.05,0,0,0.05,50.95,0)" xlink:href="#am"/><use transform="matrix(0.05,0,0,0.05,54.900000000000006,0)" xlink:href="#aD"/></g><path d="M115-194c53 0 69 39 70 98 0 66-23 100-70 100C84 3 66-7 56-30L54 0H23l1-261h32v101c10-23 28-34 59-34zm-8 174c40 0 45-34 45-75 0-40-5-75-45-74-42 0-51 32-51 76 0 43 10 73 51 73" id="aM"/><path d="M33-261c38 41 65 92 65 168S71 34 33 75H2C39 34 66-17 66-93S39-220 2-261h31" id="aN"/><g id="z"><use transform="matrix(0.05,0,0,0.05,0,0)" xlink:href="#aD"/><use transform="matrix(0.05,0,0,0.05,5,0)" xlink:href="#aw"/><use transform="matrix(0.05,0,0,0.05,15,0)" xlink:href="#aM"/><use transform="matrix(0.05,0,0,0.05,25,0)" xlink:href="#am"/><use transform="matrix(0.05,0,0,0.05,28.950000000000003,0)" xlink:href="#ap"/><use transform="matrix(0.05,0,0,0.05,38.95,0)" xlink:href="#aN"/></g><g id="A"><use transform="matrix(0.05,0,0,0.05,0,0)" xlink:href="#aC"/><use transform="matrix(0.05,0,0,0.05,5,0)" xlink:href="#az"/><use transform="matrix(0.05,0,0,0.05,8.95,0)" xlink:href="#au"/><use transform="matrix(0.05,0,0,0.05,14.899999999999999,0)" xlink:href="#at"/><use transform="matrix(0.05,0,0,0.05,23.9,0)" xlink:href="#aD"/><use transform="matrix(0.05,0,0,0.05,28.899999999999995,0)" xlink:href="#aE"/><use transform="matrix(0.05,0,0,0.05,38.9,0)" xlink:href="#ax"/><use transform="matrix(0.05,0,0,0.05,48.9,0)" xlink:href="#aw"/><use transform="matrix(0.05,0,0,0.05,58.900000000000006,0)" xlink:href="#ak"/><use transform="matrix(0.05,0,0,0.05,73.85,0)" xlink:href="#ap"/></g><g id="B"><use transform="matrix(0.05,0,0,0.05,0,0)" xlink:href="#am"/><use transform="matrix(0.05,0,0,0.05,3.95,0)" xlink:href="#aw"/><use transform="matrix(0.05,0,0,0.05,13.949999999999998,0)" xlink:href="#at"/><use transform="matrix(0.05,0,0,0.05,22.95,0)" xlink:href="#aD"/><use transform="matrix(0.05,0,0,0.05,27.950000000000003,0)" xlink:href="#aE"/><use transform="matrix(0.05,0,0,0.05,37.95,0)" xlink:href="#ax"/><use transform="matrix(0.05,0,0,0.05,47.95,0)" xlink:href="#aw"/><use transform="matrix(0.05,0,0,0.05,57.95,0)" xlink:href="#ak"/><use transform="matrix(0.05,0,0,0.05,72.9,0)" xlink:href="#ap"/></g><path d="M205 0l-28-72H64L36 0H1l101-248h38L239 0h-34zm-38-99l-47-123c-12 45-31 82-46 123h93" id="aO"/><g id="C"><use transform="matrix(0.05,0,0,0.05,0,0)" xlink:href="#aJ"/><use transform="matrix(0.05,0,0,0.05,12,0)" xlink:href="#aw"/><use transform="matrix(0.05,0,0,0.05,22,0)" xlink:href="#ax"/><use transform="matrix(0.05,0,0,0.05,32,0)" xlink:href="#aI"/><use transform="matrix(0.05,0,0,0.05,41,0)" xlink:href="#aO"/><use transform="matrix(0.05,0,0,0.05,53,0)" xlink:href="#av"/><use transform="matrix(0.05,0,0,0.05,62,0)" xlink:href="#av"/><use transform="matrix(0.05,0,0,0.05,71,0)" xlink:href="#an"/><use transform="matrix(0.05,0,0,0.05,81,0)" xlink:href="#as"/><use transform="matrix(0.05,0,0,0.05,91,0)" xlink:href="#ax"/><use transform="matrix(0.05,0,0,0.05,101,0)" xlink:href="#aD"/></g><g id="D"><use transform="matrix(0.05,0,0,0.05,0,0)" xlink:href="#at"/><use transform="matrix(0.05,0,0,0.05,9,0)" xlink:href="#aD"/><use transform="matrix(0.05,0,0,0.05,14,0)" xlink:href="#aw"/><use transform="matrix(0.05,0,0,0.05,24,0)" xlink:href="#au"/><use transform="matrix(0.05,0,0,0.05,29.950000000000003,0)" xlink:href="#aD"/><use transform="matrix(0.05,0,0,0.05,34.95,0)" xlink:href="#aE"/><use transform="matrix(0.05,0,0,0.05,44.95,0)" xlink:href="#aw"/><use transform="matrix(0.05,0,0,0.05,54.95,0)" xlink:href="#ak"/><use transform="matrix(0.05,0,0,0.05,69.9,0)" xlink:href="#an"/><use transform="matrix(0.05,0,0,0.05,79.9,0)" xlink:href="#as"/><use transform="matrix(0.05,0,0,0.05,89.9,0)" xlink:href="#ax"/><use transform="matrix(0.05,0,0,0.05,99.9,0)" xlink:href="#aD"/></g><g id="E"><use transform="matrix(0.05,0,0,0.05,0,0)" xlink:href="#az"/><use transform="matrix(0.05,0,0,0.05,3.95,0)" xlink:href="#aM"/><use transform="matrix(0.05,0,0,0.05,13.949999999999998,0)" xlink:href="#aw"/><use transform="matrix(0.05,0,0,0.05,23.95,0)" xlink:href="#ax"/></g><g id="F"><use transform="matrix(0.05,0,0,0.05,0,0)" xlink:href="#aB"/><use transform="matrix(0.05,0,0,0.05,12.950000000000001,0)" xlink:href="#as"/><use transform="matrix(0.05,0,0,0.05,22.950000000000003,0)" xlink:href="#au"/><use transform="matrix(0.05,0,0,0.05,28.900000000000002,0)" xlink:href="#ap"/><use transform="matrix(0.05,0,0,0.05,38.900000000000006,0)" xlink:href="#ax"/><use transform="matrix(0.05,0,0,0.05,48.900000000000006,0)" xlink:href="#av"/><use transform="matrix(0.05,0,0,0.05,57.900000000000006,0)" xlink:href="#ao"/></g><g id="G"><use transform="matrix(0.05,0,0,0.05,0,0)" xlink:href="#aG"/><use transform="matrix(0.05,0,0,0.05,5,0)" xlink:href="#aD"/><use transform="matrix(0.05,0,0,0.05,10,0)" xlink:href="#ap"/><use transform="matrix(0.05,0,0,0.05,20,0)" xlink:href="#ak"/></g><g id="H"><use transform="matrix(0.05,0,0,0.05,0,0)" xlink:href="#aA"/><use transform="matrix(0.05,0,0,0.05,10,0)" xlink:href="#ap"/><use transform="matrix(0.05,0,0,0.05,20,0)" xlink:href="#at"/><use transform="matrix(0.05,0,0,0.05,29,0)" xlink:href="#av"/><use transform="matrix(0.05,0,0,0.05,38,0)" xlink:href="#au"/><use transform="matrix(0.05,0,0,0.05,43.95,0)" xlink:href="#az"/><use transform="matrix(0.05,0,0,0.05,47.900000000000006,0)" xlink:href="#al"/><use transform="matrix(0.05,0,0,0.05,57.900000000000006,0)" xlink:href="#aD"/><use transform="matrix(0.05,0,0,0.05,62.900000000000006,0)" xlink:href="#az"/><use transform="matrix(0.05,0,0,0.05,66.85000000000001,0)" xlink:href="#an"/><use transform="matrix(0.05,0,0,0.05,76.85000000000001,0)" xlink:href="#ax"/></g><g id="I"><use transform="matrix(0.05,0,0,0.05,0,0)" xlink:href="#aA"/><use transform="matrix(0.05,0,0,0.05,10,0)" xlink:href="#ap"/><use transform="matrix(0.05,0,0,0.05,20,0)" xlink:href="#aC"/><use transform="matrix(0.05,0,0,0.05,25,0)" xlink:href="#aw"/><use transform="matrix(0.05,0,0,0.05,35,0)" xlink:href="#as"/><use transform="matrix(0.05,0,0,0.05,45,0)" xlink:href="#am"/><use transform="matrix(0.05,0,0,0.05,48.95,0)" xlink:href="#aD"/><use transform="matrix(0.05,0,0,0.05,53.95,0)" xlink:href="#aE"/><use transform="matrix(0.05,0,0,0.05,63.95,0)" xlink:href="#al"/><use transform="matrix(0.05,0,0,0.05,73.95,0)" xlink:href="#au"/><use transform="matrix(0.05,0,0,0.05,79.9,0)" xlink:href="#az"/><use transform="matrix(0.05,0,0,0.05,83.85000000000001,0)" xlink:href="#av"/><use transform="matrix(0.05,0,0,0.05,92.85000000000001,0)" xlink:href="#ap"/></g><g id="J"><use transform="matrix(0.05,0,0,0.05,0,0)" xlink:href="#aG"/><use transform="matrix(0.05,0,0,0.05,5,0)" xlink:href="#ax"/><use transform="matrix(0.05,0,0,0.05,15,0)" xlink:href="#aH"/><use transform="matrix(0.05,0,0,0.05,24,0)" xlink:href="#an"/><use transform="matrix(0.05,0,0,0.05,34,0)" xlink:href="#az"/><use transform="matrix(0.05,0,0,0.05,37.95,0)" xlink:href="#az"/><use transform="matrix(0.05,0,0,0.05,41.900000000000006,0)" xlink:href="#av"/><use transform="matrix(0.05,0,0,0.05,50.900000000000006,0)" xlink:href="#ap"/><use transform="matrix(0.05,0,0,0.05,60.900000000000006,0)" xlink:href="#aG"/><use transform="matrix(0.05,0,0,0.05,65.9,0)" xlink:href="#aD"/><use transform="matrix(0.05,0,0,0.05,70.9,0)" xlink:href="#ap"/><use transform="matrix(0.05,0,0,0.05,80.9,0)" xlink:href="#ak"/></g><g id="K"><use transform="matrix(0.05,0,0,0.05,0,0)" xlink:href="#az"/><use transform="matrix(0.05,0,0,0.05,3.95,0)" xlink:href="#ax"/><use transform="matrix(0.05,0,0,0.05,13.949999999999998,0)" xlink:href="#aH"/><use transform="matrix(0.05,0,0,0.05,22.95,0)" xlink:href="#an"/><use transform="matrix(0.05,0,0,0.05,32.95,0)" xlink:href="#az"/><use transform="matrix(0.05,0,0,0.05,36.900000000000006,0)" xlink:href="#av"/><use transform="matrix(0.05,0,0,0.05,45.900000000000006,0)" xlink:href="#ap"/></g><g id="L"><use transform="matrix(0.05,0,0,0.05,0,0)" xlink:href="#az"/><use transform="matrix(0.05,0,0,0.05,3.95,0)" xlink:href="#aD"/><use transform="matrix(0.05,0,0,0.05,8.95,0)" xlink:href="#ap"/><use transform="matrix(0.05,0,0,0.05,18.95,0)" xlink:href="#ak"/></g><g id="M"><use transform="matrix(0.05,0,0,0.05,0,0)" xlink:href="#al"/><use transform="matrix(0.05,0,0,0.05,10,0)" xlink:href="#au"/><use transform="matrix(0.05,0,0,0.05,15.949999999999998,0)" xlink:href="#az"/><use transform="matrix(0.05,0,0,0.05,19.9,0)" xlink:href="#av"/><use transform="matrix(0.05,0,0,0.05,28.899999999999995,0)" xlink:href="#ap"/></g><g id="N"><use transform="matrix(0.05,0,0,0.05,0,0)" xlink:href="#aw"/><use transform="matrix(0.05,0,0,0.05,10,0)" xlink:href="#ak"/><use transform="matrix(0.05,0,0,0.05,24.950000000000003,0)" xlink:href="#an"/><use transform="matrix(0.05,0,0,0.05,34.95,0)" xlink:href="#as"/><use transform="matrix(0.05,0,0,0.05,44.95,0)" xlink:href="#ax"/><use transform="matrix(0.05,0,0,0.05,54.95,0)" xlink:href="#aD"/></g><g id="O"><use transform="matrix(0.05,0,0,0.05,0,0)" xlink:href="#aJ"/><use transform="matrix(0.05,0,0,0.05,12,0)" xlink:href="#az"/><use transform="matrix(0.05,0,0,0.05,15.949999999999998,0)" xlink:href="#am"/><use transform="matrix(0.05,0,0,0.05,19.9,0)" xlink:href="#am"/><use transform="matrix(0.05,0,0,0.05,23.849999999999998,0)" xlink:href="#aG"/><use transform="matrix(0.05,0,0,0.05,28.849999999999994,0)" xlink:href="#aD"/><use transform="matrix(0.05,0,0,0.05,33.849999999999994,0)" xlink:href="#ap"/><use transform="matrix(0.05,0,0,0.05,43.849999999999994,0)" xlink:href="#ak"/></g><g id="P"><use transform="matrix(0.05,0,0,0.05,0,0)" xlink:href="#aM"/><use transform="matrix(0.05,0,0,0.05,10,0)" xlink:href="#az"/><use transform="matrix(0.05,0,0,0.05,13.949999999999998,0)" xlink:href="#am"/><use transform="matrix(0.05,0,0,0.05,17.9,0)" xlink:href="#am"/></g><path d="M30-248c118-7 216 8 213 122C240-48 200 0 122 0H30v-248zM63-27c89 8 146-16 146-99s-60-101-146-95v194" id="aP"/><g id="Q"><use transform="matrix(0.05,0,0,0.05,0,0)" xlink:href="#aB"/><use transform="matrix(0.05,0,0,0.05,12.950000000000001,0)" xlink:href="#an"/><use transform="matrix(0.05,0,0,0.05,22.950000000000003,0)" xlink:href="#ak"/><use transform="matrix(0.05,0,0,0.05,37.900000000000006,0)" xlink:href="#al"/><use transform="matrix(0.05,0,0,0.05,47.900000000000006,0)" xlink:href="#aw"/><use transform="matrix(0.05,0,0,0.05,57.900000000000006,0)" xlink:href="#ax"/><use transform="matrix(0.05,0,0,0.05,67.9,0)" xlink:href="#ao"/><use transform="matrix(0.05,0,0,0.05,76.9,0)" xlink:href="#aP"/><use transform="matrix(0.05,0,0,0.05,89.85000000000001,0)" xlink:href="#ap"/><use transform="matrix(0.05,0,0,0.05,99.85000000000001,0)" xlink:href="#aD"/><use transform="matrix(0.05,0,0,0.05,104.85000000000001,0)" xlink:href="#aw"/><use transform="matrix(0.05,0,0,0.05,114.85000000000001,0)" xlink:href="#az"/><use transform="matrix(0.05,0,0,0.05,118.80000000000001,0)" xlink:href="#am"/><use transform="matrix(0.05,0,0,0.05,122.75,0)" xlink:href="#at"/></g><g id="R"><use transform="matrix(0.05,0,0,0.05,0,0)" xlink:href="#aw"/><use transform="matrix(0.05,0,0,0.05,10,0)" xlink:href="#aA"/><use transform="matrix(0.05,0,0,0.05,20,0)" xlink:href="#aA"/><use transform="matrix(0.05,0,0,0.05,30,0)" xlink:href="#au"/><use transform="matrix(0.05,0,0,0.05,35.95,0)" xlink:href="#ap"/><use transform="matrix(0.05,0,0,0.05,45.95,0)" xlink:href="#at"/><use transform="matrix(0.05,0,0,0.05,54.95,0)" xlink:href="#at"/></g><path d="M9 0v-24l116-142H16v-24h144v24L44-24h123V0H9" id="aQ"/><g id="S"><use transform="matrix(0.05,0,0,0.05,0,0)" xlink:href="#aQ"/><use transform="matrix(0.05,0,0,0.05,9,0)" xlink:href="#az"/><use transform="matrix(0.05,0,0,0.05,12.949999999999998,0)" xlink:href="#al"/></g><g id="T"><use transform="matrix(0.05,0,0,0.05,0,0)" xlink:href="#av"/><use transform="matrix(0.05,0,0,0.05,9,0)" xlink:href="#az"/><use transform="matrix(0.05,0,0,0.05,12.949999999999998,0)" xlink:href="#aD"/><use transform="matrix(0.05,0,0,0.05,17.95,0)" xlink:href="#ao"/></g><g id="U"><use transform="matrix(0.05,0,0,0.05,0,0)" xlink:href="#av"/><use transform="matrix(0.05,0,0,0.05,9,0)" xlink:href="#an"/><use transform="matrix(0.05,0,0,0.05,19,0)" xlink:href="#as"/><use transform="matrix(0.05,0,0,0.05,29,0)" xlink:href="#ax"/><use transform="matrix(0.05,0,0,0.05,39,0)" xlink:href="#aD"/><use transform="matrix(0.05,0,0,0.05,44,0)" xlink:href="#au"/><use transform="matrix(0.05,0,0,0.05,49.95,0)" xlink:href="#ao"/></g><g id="V"><use transform="matrix(0.05,0,0,0.05,0,0)" xlink:href="#ap"/><use transform="matrix(0.05,0,0,0.05,10,0)" xlink:href="#ak"/><use transform="matrix(0.05,0,0,0.05,24.950000000000003,0)" xlink:href="#aw"/><use transform="matrix(0.05,0,0,0.05,34.95,0)" xlink:href="#az"/><use transform="matrix(0.05,0,0,0.05,38.900000000000006,0)" xlink:href="#am"/></g><path d="M106-169C34-169 62-67 57 0H25v-261h32l-1 103c12-21 28-36 61-36 89 0 53 116 60 194h-32v-121c2-32-8-49-39-48" id="aR"/><g id="W"><use transform="matrix(0.05,0,0,0.05,0,0)" xlink:href="#al"/><use transform="matrix(0.05,0,0,0.05,10,0)" xlink:href="#aR"/><use transform="matrix(0.05,0,0,0.05,20,0)" xlink:href="#an"/><use transform="matrix(0.05,0,0,0.05,30,0)" xlink:href="#ax"/><use transform="matrix(0.05,0,0,0.05,40,0)" xlink:href="#ap"/></g><g id="X"><use transform="matrix(0.05,0,0,0.05,0,0)" xlink:href="#aH"/><use transform="matrix(0.05,0,0,0.05,9,0)" xlink:href="#aw"/><use transform="matrix(0.05,0,0,0.05,19,0)" xlink:href="#aD"/><use transform="matrix(0.05,0,0,0.05,24,0)" xlink:href="#aE"/><use transform="matrix(0.05,0,0,0.05,34,0)" xlink:href="#az"/><use transform="matrix(0.05,0,0,0.05,37.95,0)" xlink:href="#aA"/></g><g id="Y"><use transform="matrix(0.05,0,0,0.05,0,0)" xlink:href="#av"/><use transform="matrix(0.05,0,0,0.05,9,0)" xlink:href="#an"/><use transform="matrix(0.05,0,0,0.05,19,0)" xlink:href="#ak"/><use transform="matrix(0.05,0,0,0.05,33.95,0)" xlink:href="#ak"/><use transform="matrix(0.05,0,0,0.05,48.900000000000006,0)" xlink:href="#ap"/><use transform="matrix(0.05,0,0,0.05,58.900000000000006,0)" xlink:href="#au"/><use transform="matrix(0.05,0,0,0.05,64.85000000000001,0)" xlink:href="#av"/><use transform="matrix(0.05,0,0,0.05,73.85000000000001,0)" xlink:href="#ap"/><use transform="matrix(0.05,0,0,0.05,83.85000000000001,0)" xlink:href="#aE"/><use transform="matrix(0.05,0,0,0.05,93.85000000000001,0)" xlink:href="#az"/><use transform="matrix(0.05,0,0,0.05,97.80000000000001,0)" xlink:href="#aA"/></g><g id="Z"><use transform="matrix(0.05,0,0,0.05,0,0)" xlink:href="#aF"/><use transform="matrix(0.05,0,0,0.05,11,0)" xlink:href="#ap"/><use transform="matrix(0.05,0,0,0.05,21,0)" xlink:href="#ax"/><use transform="matrix(0.05,0,0,0.05,31,0)" xlink:href="#aA"/><use transform="matrix(0.05,0,0,0.05,41,0)" xlink:href="#an"/><use transform="matrix(0.05,0,0,0.05,51,0)" xlink:href="#au"/><use transform="matrix(0.05,0,0,0.05,56.95,0)" xlink:href="#aP"/><use transform="matrix(0.05,0,0,0.05,69.9,0)" xlink:href="#ap"/><use transform="matrix(0.05,0,0,0.05,79.9,0)" xlink:href="#aD"/><use transform="matrix(0.05,0,0,0.05,84.9,0)" xlink:href="#aw"/><use transform="matrix(0.05,0,0,0.05,94.9,0)" xlink:href="#az"/><use transform="matrix(0.05,0,0,0.05,98.85000000000001,0)" xlink:href="#am"/><use transform="matrix(0.05,0,0,0.05,102.80000000000001,0)" xlink:href="#at"/></g><g id="aa"><use transform="matrix(0.05,0,0,0.05,0,0)" xlink:href="#aH"/><use transform="matrix(0.05,0,0,0.05,9,0)" xlink:href="#aw"/><use transform="matrix(0.05,0,0,0.05,19,0)" xlink:href="#aD"/></g><g id="ab"><use transform="matrix(0.05,0,0,0.05,0,0)" xlink:href="#av"/><use transform="matrix(0.05,0,0,0.05,9,0)" xlink:href="#an"/><use transform="matrix(0.05,0,0,0.05,19,0)" xlink:href="#ak"/><use transform="matrix(0.05,0,0,0.05,33.95,0)" xlink:href="#ak"/><use transform="matrix(0.05,0,0,0.05,48.900000000000006,0)" xlink:href="#ap"/><use transform="matrix(0.05,0,0,0.05,58.900000000000006,0)" xlink:href="#au"/><use transform="matrix(0.05,0,0,0.05,64.85000000000001,0)" xlink:href="#av"/><use transform="matrix(0.05,0,0,0.05,73.85000000000001,0)" xlink:href="#ap"/></g><g id="ac"><use transform="matrix(0.05,0,0,0.05,0,0)" xlink:href="#aB"/><use transform="matrix(0.05,0,0,0.05,12.950000000000001,0)" xlink:href="#am"/><use transform="matrix(0.05,0,0,0.05,16.900000000000002,0)" xlink:href="#az"/><use transform="matrix(0.05,0,0,0.05,20.85,0)" xlink:href="#ap"/><use transform="matrix(0.05,0,0,0.05,30.85,0)" xlink:href="#ax"/><use transform="matrix(0.05,0,0,0.05,40.85,0)" xlink:href="#aD"/><use transform="matrix(0.05,0,0,0.05,45.85,0)" xlink:href="#aP"/><use transform="matrix(0.05,0,0,0.05,58.800000000000004,0)" xlink:href="#ap"/><use transform="matrix(0.05,0,0,0.05,68.80000000000001,0)" xlink:href="#aD"/><use transform="matrix(0.05,0,0,0.05,73.80000000000001,0)" xlink:href="#aw"/><use transform="matrix(0.05,0,0,0.05,83.80000000000001,0)" xlink:href="#az"/><use transform="matrix(0.05,0,0,0.05,87.75000000000001,0)" xlink:href="#am"/><use transform="matrix(0.05,0,0,0.05,91.70000000000002,0)" xlink:href="#at"/></g><g id="ad"><use transform="matrix(0.05,0,0,0.05,0,0)" xlink:href="#aB"/><use transform="matrix(0.05,0,0,0.05,12.950000000000001,0)" xlink:href="#as"/><use transform="matrix(0.05,0,0,0.05,22.950000000000003,0)" xlink:href="#au"/><use transform="matrix(0.05,0,0,0.05,28.900000000000002,0)" xlink:href="#au"/><use transform="matrix(0.05,0,0,0.05,34.85,0)" xlink:href="#au"/><use transform="matrix(0.05,0,0,0.05,40.800000000000004,0)" xlink:href="#ap"/><use transform="matrix(0.05,0,0,0.05,50.800000000000004,0)" xlink:href="#ax"/><use transform="matrix(0.05,0,0,0.05,60.800000000000004,0)" xlink:href="#av"/><use transform="matrix(0.05,0,0,0.05,69.80000000000001,0)" xlink:href="#ao"/></g><g id="ae"><use transform="matrix(0.05,0,0,0.05,0,0)" xlink:href="#av"/><use transform="matrix(0.05,0,0,0.05,9,0)" xlink:href="#an"/><use transform="matrix(0.05,0,0,0.05,19,0)" xlink:href="#aA"/><use transform="matrix(0.05,0,0,0.05,29,0)" xlink:href="#ap"/></g><g id="af"><use transform="matrix(0.05,0,0,0.05,0,0)" xlink:href="#aB"/><use transform="matrix(0.05,0,0,0.05,12.950000000000001,0)" xlink:href="#am"/><use transform="matrix(0.05,0,0,0.05,16.900000000000002,0)" xlink:href="#az"/><use transform="matrix(0.05,0,0,0.05,20.85,0)" xlink:href="#ap"/><use transform="matrix(0.05,0,0,0.05,30.85,0)" xlink:href="#ax"/><use transform="matrix(0.05,0,0,0.05,40.85,0)" xlink:href="#aD"/><use transform="matrix(0.05,0,0,0.05,45.85,0)" xlink:href="#aO"/><use transform="matrix(0.05,0,0,0.05,57.85,0)" xlink:href="#av"/><use transform="matrix(0.05,0,0,0.05,66.85,0)" xlink:href="#av"/><use transform="matrix(0.05,0,0,0.05,75.85,0)" xlink:href="#an"/><use transform="matrix(0.05,0,0,0.05,85.85,0)" xlink:href="#as"/><use transform="matrix(0.05,0,0,0.05,95.85,0)" xlink:href="#ax"/><use transform="matrix(0.05,0,0,0.05,105.84999999999998,0)" xlink:href="#aD"/></g><path d="M206 0h-36l-40-164L89 0H53L-1-190h32L70-26l43-164h34l41 164 42-164h31" id="aS"/><g id="ag"><use transform="matrix(0.05,0,0,0.05,0,0)" xlink:href="#aG"/><use transform="matrix(0.05,0,0,0.05,5,0)" xlink:href="#ax"/><use transform="matrix(0.05,0,0,0.05,15,0)" xlink:href="#aH"/><use transform="matrix(0.05,0,0,0.05,24,0)" xlink:href="#an"/><use transform="matrix(0.05,0,0,0.05,34,0)" xlink:href="#az"/><use transform="matrix(0.05,0,0,0.05,37.95,0)" xlink:href="#av"/><use transform="matrix(0.05,0,0,0.05,46.95,0)" xlink:href="#ap"/><use transform="matrix(0.05,0,0,0.05,56.95,0)" xlink:href="#aF"/><use transform="matrix(0.05,0,0,0.05,68.6,0)" xlink:href="#az"/><use transform="matrix(0.05,0,0,0.05,72.55,0)" xlink:href="#ap"/><use transform="matrix(0.05,0,0,0.05,82.55,0)" xlink:href="#aS"/><use transform="matrix(0.05,0,0,0.05,95.5,0)" xlink:href="#ap"/><use transform="matrix(0.05,0,0,0.05,105.5,0)" xlink:href="#aA"/></g><g id="ah"><use transform="matrix(0.05,0,0,0.05,0,0)" xlink:href="#aG"/><use transform="matrix(0.05,0,0,0.05,5,0)" xlink:href="#ax"/><use transform="matrix(0.05,0,0,0.05,15,0)" xlink:href="#aH"/><use transform="matrix(0.05,0,0,0.05,24,0)" xlink:href="#an"/><use transform="matrix(0.05,0,0,0.05,34,0)" xlink:href="#az"/><use transform="matrix(0.05,0,0,0.05,37.95,0)" xlink:href="#av"/><use transform="matrix(0.05,0,0,0.05,46.95,0)" xlink:href="#ap"/><use transform="matrix(0.05,0,0,0.05,56.95,0)" xlink:href="#ay"/><use transform="matrix(0.05,0,0,0.05,68.95,0)" xlink:href="#aw"/><use transform="matrix(0.05,0,0,0.05,78.95,0)" xlink:href="#az"/><use transform="matrix(0.05,0,0,0.05,82.9,0)" xlink:href="#aA"/><use transform="matrix(0.05,0,0,0.05,92.9,0)" xlink:href="#ap"/><use transform="matrix(0.05,0,0,0.05,102.9,0)" xlink:href="#aA"/></g><path d="M185-189c-5-48-123-54-124 2 14 75 158 14 163 119 3 78-121 87-175 55-17-10-28-26-33-46l33-7c5 56 141 63 141-1 0-78-155-14-162-118-5-82 145-84 179-34 5 7 8 16 11 25" id="aT"/><g id="ai"><use transform="matrix(0.05,0,0,0.05,0,0)" xlink:href="#aG"/><use transform="matrix(0.05,0,0,0.05,5,0)" xlink:href="#ax"/><use transform="matrix(0.05,0,0,0.05,15,0)" xlink:href="#aH"/><use transform="matrix(0.05,0,0,0.05,24,0)" xlink:href="#an"/><use transform="matrix(0.05,0,0,0.05,34,0)" xlink:href="#az"/><use transform="matrix(0.05,0,0,0.05,37.95,0)" xlink:href="#av"/><use transform="matrix(0.05,0,0,0.05,46.95,0)" xlink:href="#ap"/><use transform="matrix(0.05,0,0,0.05,56.95,0)" xlink:href="#aT"/><use transform="matrix(0.05,0,0,0.05,68.95,0)" xlink:href="#ap"/><use transform="matrix(0.05,0,0,0.05,78.95,0)" xlink:href="#ax"/><use transform="matrix(0.05,0,0,0.05,88.95,0)" xlink:href="#aD"/></g></defs></g></svg>